HIERARCHY
ROOT pelvis
{
  OFFSET 0 0 0
  CHANNELS 6 Xposition Yposition Zposition Zrotation Xrotation Yrotation
  JOINT pelvis_right_femur
  {
    OFFSET -11.43119 -3.542788 0.2090856
    CHANNELS 3 Zrotation Xrotation Yrotation
    JOINT right_femur_tibia
    {
      OFFSET -1.028693 -40.73281 5
      CHANNELS 3 Zrotation Xrotation Yrotation
      JOINT right_tibia_foot
      {
        OFFSET -0.5013517 -42.05707 -5
        CHANNELS 3 Zrotation Xrotation Yrotation
        End Site
        {
          OFFSET 0 -5 10
        }
      }
    }
  }
  JOINT pelvis_left_femur
  {
    OFFSET 11.43119 -3.542788 0.2090856
    CHANNELS 3 Zrotation Xrotation Yrotation
    JOINT left_femur_tibia
    {
      OFFSET 1.028693 -40.73281 5
      CHANNELS 3 Zrotation Xrotation Yrotation
      JOINT left_tibia_foot
      {
        OFFSET 0.3200228 -42.98253 -5
        CHANNELS 3 Zrotation Xrotation Yrotation
        End Site
        {
          OFFSET 0 -5 10
        }
      }
    }
  }
  JOINT pelvis_spine1
  {
    OFFSET 0 8.64413 -3.209807
    CHANNELS 3 Zrotation Xrotation Yrotation
    JOINT spine1
    {
      OFFSET 0 29.53957 -1.762685
      CHANNELS 3 Zrotation Xrotation Yrotation
      JOINT spine2
      {
        OFFSET 0 16.36153 -0.1422377
        CHANNELS 3 Zrotation Xrotation Yrotation
        JOINT neck
        {
          OFFSET 0 11.60093 5
          CHANNELS 3 Zrotation Xrotation Yrotation
          End Site
          {
            OFFSET 0 20 0
          }
        }
      }
      JOINT right_manubrium
      {
        OFFSET -4.671311 15.89868 4
        CHANNELS 3 Zrotation Xrotation Yrotation
        JOINT right_clavicle
        {
          OFFSET -13.601 1.573642 -2.74176
          CHANNELS 3 Zrotation Xrotation Yrotation
          JOINT right_humerus
          {
            OFFSET -0.06331682 -27.72702 2.252146
            CHANNELS 3 Zrotation Xrotation Yrotation
            JOINT right_radius
            {
              OFFSET -0.5696302 -23.92083 0.4042105
              CHANNELS 3 Zrotation Xrotation Yrotation
              End Site
              {
                OFFSET 0 -15 0
              }
            }
          }
        }
      }
      JOINT left_manubrium
      {
        OFFSET 4.671311 15.89868 4
        CHANNELS 3 Zrotation Xrotation Yrotation
        JOINT left_clavicle
        {
          OFFSET 13.601 1.573642 -2.74176
          CHANNELS 3 Zrotation Xrotation Yrotation
          JOINT left_humerus
          {
            OFFSET 0.000209614 -29.01858 1.101395
            CHANNELS 3 Zrotation Xrotation Yrotation
            JOINT left_radius
            {
              OFFSET -0.2288314 -24.59216 1.790347
              CHANNELS 3 Zrotation Xrotation Yrotation
              End Site
              {
                OFFSET 0 -15 0
              }
            }
          }
        }
      }
    }
  }
}
MOTION
Frames: 13
Frame Time: 0.0416666666667
0 48.26591 0 -4.011484 -19.08968 -1.375499 -54.44611 -61.44187 -54.30991 -180 85.73737 -180 5.394132 5.951487 -0.9638325 70.46019 -51.75579 65.34716 -180 79.79099 -180 -5.098019 3.25748 -19.09888 -1.55768 20.8541 1.479745 8.377719 14.1212 -10.29878 -12.53803 9.869897 12.67415 4.110459 -28.83574 8.142324 21.69343 -5.643038 23.10617 -57.96891 -33.29288 12.03604 0 -74.58141 0 18.42042 12.67829 41.30738 -27.1054 -26.81496 -4.299797 54.33283 -22.98851 -24.4883 0 -77.92248 0 -11.31254 6.025321 -24.68405
0.05948641 48.20363 0.03207324 -4.033021 -19.06343 -1.397989 -54.5127 -61.4285 -54.38044 -180 85.72398 -180 5.40307 5.942298 -0.9678443 70.47769 -51.81123 65.3605 -180 79.78788 -180 -5.096795 3.259593 -19.09145 -1.511611 20.86735 1.521513 8.340241 14.1165 -10.22969 -12.46508 9.896207 12.79469 4.142195 -28.81597 8.35189 21.7084 -5.683523 22.94973 -58.01867 -33.23673 11.96002 0 -74.70982 0 18.41151 12.66133 41.30907 -27.10768 -27.20069 -4.060198 54.57907 -22.61384 -23.56166 0 -77.51588 0 -10.96943 5.735985 -24.17689
0.1363326 48.14878 0.07202155 -4.043887 -19.02692 -1.347811 -54.61766 -61.40305 -54.49088 -180 85.70202 -180 5.418301 5.925945 -0.9772514 70.51004 -51.90142 65.38778 -180 79.7832 -180 -5.093344 3.264986 -19.08463 -1.437361 20.88741 1.58597 8.295454 14.1062 -10.12784 -12.36244 9.941117 12.98883 4.197658 -28.77849 8.675908 21.72495 -5.746627 22.70731 -58.0999 -33.14603 11.84007 0 -74.91255 0 18.39787 12.63186 41.31142 -27.08769 -27.80154 -3.724754 54.95623 -22.07985 -22.18812 0 -76.77231 0 -10.48855 5.367776 -23.41465
0.2361958 48.10392 0.1223217 -4.039301 -18.98143 -1.201529 -54.75921 -61.36345 -54.63775 -180 85.67109 -180 5.440781 5.901261 -0.9949889 70.55972 -52.02733 65.43325 -180 79.77722 -180 -5.086633 3.274961 -19.08171 -1.335905 20.91312 1.672174 8.253279 14.08932 -9.998438 -12.23812 10.00559 13.25997 4.279253 -28.7197 9.111368 21.73843 -5.831266 22.38438 -58.21438 -33.01873 11.67691 0 -75.18923 0 18.38022 12.58807 41.31425 -27.02562 -28.61306 -3.324271 55.45901 -21.41943 -20.42266 0 -75.61711 0 -9.909146 4.966985 -22.40672
0.3635531 48.07089 0.1844603 -4.016014 -18.92906 -0.9418362 -54.93029 -61.30879 -54.81057 -180 85.63154 -180 5.471503 5.867317 -1.025431 70.62826 -52.18675 65.50151 -180 79.77058 -180 -5.075424 3.290951 -19.08707 -1.212741 20.94167 1.77707 8.228044 14.06585 -9.851513 -12.10482 10.08797 13.60748 4.387349 -28.63677 9.646345 21.74264 -5.933555 21.99761 -58.36206 -32.85432 11.47551 0 -75.53294 0 18.36038 12.52869 41.31739 -26.8949 -29.61262 -2.910962 56.07764 -20.68823 -18.36712 0 -73.97017 0 -9.296833 4.586698 -21.17242
0.5211998 48.05043 0.2584936 -3.97349 -18.87216 -0.56036 -55.12018 -61.23908 -54.99397 -180 85.58423 -180 5.51151 5.823343 -1.074028 70.71676 -52.37531 65.59758 -180 79.76414 -180 -5.058319 3.314485 -19.10587 -1.076671 20.96908 1.896074 8.23732 14.03655 -9.700621 -11.97808 10.18459 14.02736 4.521113 -28.5275 10.26199 21.73041 -6.047634 21.5715 -58.54175 -32.65324 11.24365 0 -75.93214 0 18.34091 12.45266 41.32061 -26.66542 -30.76505 -2.552121 56.80342 -19.9594 -16.15399 0 -71.74621 0 -8.738806 4.282304 -19.73877
0.7103633 48.04223 0.3431298 -3.913101 -18.81283 -0.05727253 -55.31757 -61.15582 -55.17274 -180 85.53048 -180 5.561414 5.769238 -1.145148 70.82611 -52.5876 65.72533 -180 79.75847 -180 -5.034326 3.346538 -19.14197 -0.9374547 20.99147 2.02399 8.29583 14.00255 -9.55887 -11.8697 10.29068 14.5094 4.67902 -28.39167 10.93379 21.69647 -6.167587 21.13112 -58.75094 -32.41728 10.98966 0 -76.37283 0 18.32419 12.35955 41.32364 -26.31548 -32.03066 -2.30601 57.62867 -19.30001 -13.9106 0 -68.89432 0 -8.319018 4.094157 -18.13897
0.9312666 48.04543 0.4361974 -3.836888 -18.75291 0.5606148 -55.51175 -61.06315 -55.33463 -180 85.47218 -180 5.621011 5.706191 -1.240538 70.9575 -52.8174 65.88621 -180 79.75334 -180 -5.003331 3.386947 -19.19629 -0.8053634 21.00585 2.15497 8.411266 13.96513 -9.437008 -11.78142 10.40046 15.031 4.859599 -28.2329 11.62764 21.63993 -6.288708 20.69878 -58.98534 -32.15035 10.72113 0 -76.83816 0 18.31176 12.24973 41.32598 -25.83933 -33.36701 -2.205803 58.54151 -18.75698 -11.74317 0 -65.4335 0 -8.104018 4.035737 -16.41361
1.183718 48.059 0.535138 -3.747292 -18.69401 1.280797 -55.69124 -60.96888 -55.46905 -180 85.4122 -180 5.689326 5.636982 -1.359513 71.11314 -53.05722 66.07963 -180 79.74751 -180 -4.966152 3.434307 -19.26648 -0.6929901 21.00967 2.281514 8.585091 13.9257 -9.344938 -11.70246 10.50639 15.55111 5.062522 -28.0598 12.29272 21.56481 -6.407426 20.29665 -59.23861 -31.85872 10.44506 0 -77.30591 0 18.30446 12.12429 41.32687 -25.24532 -34.72392 -2.262947 59.52066 -18.36381 -9.750248 0 -61.45759 0 -8.150665 4.094857 -14.6142
1.467481 48.08214 0.6373569 -3.647489 -18.63747 2.085437 -55.84383 -60.88342 -55.5666 -180 85.35415 -180 5.764877 5.565522 -1.4997 71.29601 -53.29859 66.30346 -180 79.73896 -180 -4.924253 3.486309 -19.34802 -0.6147939 21.00061 2.394717 8.814601 13.88563 -9.292322 -11.6128 10.59978 16.01479 5.289009 -27.88484 12.86551 21.47857 -6.520974 19.94727 -59.50295 -31.55049 10.16802 0 -77.74961 0 18.30273 11.98479 41.32535 -24.551 -36.04526 -2.475885 60.53687 -18.14839 -8.026867 0 -57.11206 0 -8.509367 4.241113 -12.79963
1.782277 48.11428 0.7404204 -3.54161 -18.58421 2.952895 -55.95966 -60.81569 -55.62144 -180 85.30155 -180 5.845931 5.495537 -1.657386 71.50806 -53.5338 66.55407 -180 79.72585 -180 -4.879297 3.540325 -19.43588 -0.5821666 20.9773 2.486616 9.093661 13.84588 -9.285939 -11.49202 10.67352 16.37205 5.540962 -27.72087 13.29038 21.3893 -6.627419 19.66803 -59.77042 -31.23404 9.896172 0 -78.14575 0 18.30662 11.833 41.32062 -23.77917 -37.28463 -2.834437 61.56132 -18.12853 -6.640559 0 -52.55087 0 -9.208368 4.436016 -11.02228
2.127419 48.15508 0.8421797 -3.434401 -18.53472 3.86051 -56.03328 -60.76977 -55.63388 -180 85.25735 -180 5.930492 5.429665 -1.827003 71.74858 -53.75704 66.82542 -180 79.70723 -180 -4.832935 3.593497 -19.52551 -0.5992046 20.94026 2.551625 9.411821 13.80673 -9.327315 -11.32541 10.72407 16.59109 5.82031 -27.57945 13.53424 21.30401 -6.725491 19.46634 -60.03307 -30.91773 9.635959 0 -78.47851 0 18.3159 11.67093 41.31229 -22.9578 -38.41763 -3.31941 62.57032 -18.30371 -5.611001 0 -47.91341 0 -10.23772 4.639946 -9.319208
2.501215 48.20425 0.9409171 -3.330398 -18.4895 4.787524 -56.06266 -60.74432 -55.61064 -180 85.22453 -180 6.01604 5.369582 -2.000112 72.01393 -53.96381 67.10801 -180 79.68306 -180 -4.786988 3.642244 -19.61254 -0.6624531 20.89223 2.585678 9.752845 13.76781 -9.41283 -11.10321 10.75121 16.65605 6.129425 -27.47263 13.58367 21.22916 -6.81405 19.34012 -60.28147 -30.61118 9.395731 0 -78.73808 0 18.33012 11.50094 41.3005 -22.12281 -39.44044 -3.900463 63.54234 -18.6519 -4.912591 0 -43.33572 0 -11.54626 4.813263 -7.7162
